<?xml version="1.0" encoding="UTF-8"?>
<svg version="1.1" xmlns="http://www.w3.org/2000/svg" width="512" height="512">
<path d="M0 0 C10.13905673 6.28878202 15.87581612 17.94830728 21.94042969 27.82910156 C23.65566423 30.61225605 25.39091803 33.38189922 27.1328125 36.1484375 C42.07400562 59.88835551 56.51422703 83.90939699 70.63330078 108.14501953 C72.51163592 111.36798291 74.3937274 114.58871478 76.27734375 117.80859375 C81.58946404 126.89423806 86.87784188 135.9927755 92.12524414 145.1159668 C104.37635652 166.4130236 116.95252393 187.51370926 129.625 208.5625 C130.07190186 207.79921387 130.51880371 207.03592773 130.97924805 206.24951172 C133.08988565 202.64524615 135.20105701 199.04129379 137.3125 195.4375 C137.69903748 194.77769135 138.08557495 194.11788269 138.48382568 193.43807983 C143.38579792 185.07170738 148.30445515 176.71571307 153.25 168.375 C158.55957912 159.41280234 163.77626854 150.39879292 168.97143555 141.36987305 C173.14068849 134.12594979 177.34090217 126.90102244 181.5625 119.6875 C186.63793264 111.00998498 191.64758872 102.29644248 196.625 93.5625 C202.16356624 83.84389002 207.75079582 74.1556199 213.40625 64.50439453 C216.41140707 59.37228814 219.39388597 54.22885554 222.33984375 49.0625 C228.45908473 38.34019924 234.66094485 27.6920069 241.25 17.25 C241.81783203 16.3429834 242.38566406 15.4359668 242.97070312 14.50146484 C247.17658708 7.91938238 251.54821155 2.22519379 258.625 -1.4375 C262.09787728 -2.04829284 265.48043454 -2.08728567 269 -2.0625 C269.9075 -2.09472656 270.815 -2.12695312 271.75 -2.16015625 C278.73219211 -2.17021705 282.59778298 -0.20306089 287.625 4.5625 C293.00612524 9.94362524 295.10018914 15.51395906 296.0625 22.9375 C294.74363632 33.86522766 288.77617883 42.7200436 283.19970703 51.93212891 C280.1527424 57.02174083 277.20817789 62.1709587 274.25 67.3125 C273.60579102 68.43003662 272.96158203 69.54757324 272.29785156 70.69897461 C268.36872105 77.51865325 264.45968877 84.3495321 260.5625 91.1875 C255.77735174 99.58177871 250.92086871 107.93289539 246.04443359 116.27441406 C239.18808602 128.00834369 232.40785245 139.78598648 225.625 151.5625 C218.34306492 164.20552999 211.05453958 176.84382332 203.6875 189.4375 C198.26951349 198.70112835 192.92968872 208.00769637 187.61685181 217.33181763 C181.65126673 227.79919067 175.60310515 238.21627489 169.515625 248.61328125 C169.01998047 249.46873535 168.52433594 250.32418945 168.01367188 251.20556641 C167.14058632 252.68741732 166.24390587 254.15586526 165.31445312 255.60302734 C163.10913942 259.04150596 163.10913942 259.04150596 162.88842773 263.00732422 C163.61589472 265.53091371 164.48108261 267.36724671 165.86328125 269.58984375 C166.34337646 270.36666504 166.82347168 271.14348633 167.31811523 271.94384766 C167.85251221 272.78737793 168.38690918 273.6309082 168.9375 274.5 C169.50218994 275.40024902 170.06687988 276.30049805 170.64868164 277.22802734 C185.02159062 299.96657465 199.74057967 322.81304182 217.0625 343.4375 C217.75279297 344.26797852 217.75279297 344.26797852 218.45703125 345.11523438 C219.79380988 346.66257496 221.17406752 348.12195075 222.625 349.5625 C223.37003784 350.31599731 223.37003784 350.31599731 224.13012695 351.0847168 C226.74604049 353.35465341 228.63865302 354.49511637 232.14086914 354.734375 C235.11553461 354.52158224 237.99608814 354.11659632 240.9375 353.625 C241.99767334 353.46749268 243.05784668 353.30998535 244.15014648 353.14770508 C247.31680806 352.65981064 250.47042065 352.12283953 253.625 351.5625 C254.49318359 351.41071289 255.36136719 351.25892578 256.25585938 351.10253906 C278.42943807 347.07831237 295.04491378 336.94031025 312.87792969 323.5234375 C329.57864962 310.99612616 329.57864962 310.99612616 338.6875 311.6875 C349.3512029 313.49212664 356.59701433 324.48849419 362.5 332.6875 C363.10642334 333.5228125 363.71284668 334.358125 364.33764648 335.21875 C365.54832744 336.89109453 366.75569196 338.56584577 367.95947266 340.24316406 C369.41546606 342.27071277 370.88364705 344.28863018 372.35546875 346.3046875 C379.16145395 355.74182413 386.17135011 366.41260626 384.625 378.5625 C382.48021005 385.46200503 377.87515058 390.00242513 371.77514648 393.67675781 C369.75003525 394.72483029 367.70324402 395.68663089 365.625 396.625 C364.41880005 397.1823584 364.41880005 397.1823584 363.18823242 397.75097656 C350.83010563 403.38541554 338.25292137 408.53615544 325.69622803 413.70849609 C323.63077589 414.5601185 321.56647527 415.41447783 319.50244141 416.26953125 C239.8898495 449.22446861 239.8898495 449.22446861 210.07421875 437.12109375 C202.09127416 433.54338142 195.64092672 428.89453453 189.625 422.5625 C189.09672607 422.01891846 188.56845215 421.47533691 188.02416992 420.9152832 C182.87434571 415.37509331 179.38413963 409.25934206 175.8125 402.625 C174.57691603 400.37423353 173.33993403 398.12423396 172.1015625 395.875 C171.50504883 394.78703125 170.90853516 393.6990625 170.29394531 392.578125 C168.15844347 388.71947685 165.94363824 384.91401457 163.6875 381.125 C159.52595188 374.11598561 155.44162889 367.06450737 151.375 360 C145.59576451 349.96222498 139.77971334 339.94704377 133.92871094 329.95092773 C133.37731445 329.00805908 132.82591797 328.06519043 132.2578125 327.09375 C131.77199707 326.26423828 131.28618164 325.43472656 130.78564453 324.58007812 C130.02741841 323.26203424 129.30502155 321.9225431 128.625 320.5625 C124.25641346 326.89753141 120.35889013 333.3996818 116.625 340.125 C111.51173677 349.25287581 106.2994258 358.31575837 101.01123047 367.34326172 C97.21534205 373.82689591 93.4514243 380.32789455 89.70898438 386.8425293 C87.21811079 391.17517169 84.71709473 395.50186621 82.2109375 399.82568359 C81.25025822 401.48350606 80.29139768 403.14238676 79.3359375 404.80322266 C69.87401844 421.19202738 57.81242036 432.96193106 39.4140625 438.53515625 C1.13236575 447.95227845 -38.44540517 425.20074215 -72.73388672 410.67871094 C-75.37533024 409.56236043 -78.0192721 408.45214561 -80.6640625 407.34375 C-84.91635355 405.56096986 -89.16300597 403.7653873 -93.4055481 401.95953369 C-94.98624899 401.28834057 -96.56846518 400.62070276 -98.15231323 399.95697021 C-122.01166759 389.94004867 -122.01166759 389.94004867 -126.375 380.5625 C-128.66089453 366.6393242 -123.89877005 357.33060927 -116 346.125 C-114.67414904 344.31015688 -113.3317653 342.50887206 -111.98242188 340.71142578 C-110.12240661 338.22481363 -108.28931301 335.71909728 -106.453125 333.21484375 C-105.05341361 331.32974069 -103.65237191 329.44562467 -102.25 327.5625 C-101.59338379 326.6660376 -100.93676758 325.7695752 -100.26025391 324.84594727 C-95.65341592 318.730528 -90.82737545 313.04662515 -83.375 310.5625 C-72.24610023 309.42689798 -64.46036373 315.70457888 -56.13085938 322.21044922 C-36.70484834 337.16890989 -18.38231957 346.6693734 5.875 350.875 C7.34731079 351.13265137 7.34731079 351.13265137 8.84936523 351.39550781 C20.49710127 353.67828953 20.49710127 353.67828953 31.63232422 351.45239258 C33.44109006 349.94567585 33.44109006 349.94567585 35.625 347.5625 C36.285 347.5625 36.945 347.5625 37.625 347.5625 C37.87507812 346.99015625 38.12515625 346.4178125 38.3828125 345.828125 C39.80079905 343.24186022 41.46310894 341.44638587 43.5 339.3125 C63.77276009 316.9965011 79.34747527 289.83873181 95.625 264.5625 C85.77096823 246.42353567 75.62530984 228.46143089 65.1875 210.65234375 C61.4928669 204.34679581 57.83647319 198.01955564 54.1875 191.6875 C53.56496338 190.60734619 52.94242676 189.52719238 52.30102539 188.41430664 C51.03923174 186.22453666 49.77759466 184.03467645 48.51611328 181.84472656 C45.38819852 176.41590058 42.25641552 170.98930719 39.125 165.5625 C37.87498121 163.39584417 36.62498122 161.2291775 35.375 159.0625 C34.75625 157.99 34.1375 156.9175 33.5 155.8125 C27.875 146.0625 27.875 146.0625 25.9987793 142.81030273 C24.7529423 140.65090605 23.50701182 138.49156331 22.26098633 136.33227539 C19.07151047 130.80482403 15.88383115 125.27634879 12.69921875 119.74609375 C4.74751999 105.93522947 4.74751999 105.93522947 -3.3125 92.1875 C-8.40892207 83.57085771 -13.36900588 74.87596245 -18.32055664 66.17553711 C-19.00533547 64.97247321 -19.69014975 63.76942949 -20.375 62.56640625 C-20.88038551 61.67854683 -20.88038551 61.67854683 -21.39598083 60.77275085 C-23.57570944 56.9489665 -25.78016009 53.14046014 -28 49.33984375 C-28.55187988 48.39012695 -29.10375977 47.44041016 -29.67236328 46.46191406 C-30.69061395 44.71156921 -31.71462273 42.96455551 -32.74560547 41.22167969 C-37.19057427 33.55335686 -40.06690241 26.00591276 -37.72265625 17.078125 C-34.97361246 9.291134 -30.62238515 4.02451122 -23.3125 0.125 C-16.21824991 -2.68111605 -7.08327246 -3.03169649 0 0 Z " fill="#F93C48" transform="translate(126.375,1.4375)"/>
<path d="M0 0 C0.66 0 1.32 0 2 0 C3.28662109 1.72705078 3.28662109 1.72705078 4.7734375 4.1953125 C5.6243396 5.58810425 5.6243396 5.58810425 6.49243164 7.0090332 C7.1136792 8.03730225 7.73492676 9.06557129 8.375 10.125 C23.37234099 34.51345832 38.99966435 58.92186992 57.4375 80.875 C57.89769531 81.42865234 58.35789062 81.98230469 58.83203125 82.55273438 C60.16880988 84.10007496 61.54906752 85.55945075 63 87 C63.49669189 87.50233154 63.99338379 88.00466309 64.50512695 88.5222168 C67.12104049 90.79215341 69.01365302 91.93261637 72.51586914 92.171875 C75.49053461 91.95908224 78.37108814 91.55409632 81.3125 91.0625 C82.37267334 90.90499268 83.43284668 90.74748535 84.52514648 90.58520508 C87.69180806 90.09731064 90.84542065 89.56033953 94 89 C94.86818359 88.84821289 95.73636719 88.69642578 96.63085938 88.54003906 C118.80443807 84.51581237 135.41991378 74.37781025 153.25292969 60.9609375 C169.95364962 48.43362616 169.95364962 48.43362616 179.0625 49.125 C189.7262029 50.92962664 196.97201433 61.92599419 202.875 70.125 C203.48142334 70.9603125 204.08784668 71.795625 204.71264648 72.65625 C205.92332744 74.32859453 207.13069196 76.00334577 208.33447266 77.68066406 C209.79046606 79.70821277 211.25864705 81.72613018 212.73046875 83.7421875 C219.53645395 93.17932413 226.54635011 103.85010626 225 116 C222.85521005 122.89950503 218.25015058 127.43992513 212.15014648 131.11425781 C210.12503525 132.16233029 208.07824402 133.12413089 206 134.0625 C205.1958667 134.43407227 204.3917334 134.80564453 203.56323242 135.18847656 C191.20510563 140.82291554 178.62792137 145.97365544 166.07122803 151.14599609 C164.00577589 151.9976185 161.94147527 152.85197783 159.87744141 153.70703125 C80.2648495 186.66196861 80.2648495 186.66196861 50.44921875 174.55859375 C42.46627416 170.98088142 36.01592672 166.33203453 30 160 C29.20758911 159.18462769 29.20758911 159.18462769 28.39916992 158.3527832 C23.24934571 152.81259331 19.75913963 146.69684206 16.1875 140.0625 C14.95191603 137.81173353 13.71493403 135.56173396 12.4765625 133.3125 C11.88004883 132.22453125 11.28353516 131.1365625 10.66894531 130.015625 C8.53344347 126.15697685 6.31863824 122.35151457 4.0625 118.5625 C-0.751898 110.45393466 -5.46452103 102.28832709 -10.16040039 94.1105957 C-13.41403506 88.45190332 -16.69514135 82.81292137 -20.0390625 77.20703125 C-20.68327148 76.12172119 -21.32748047 75.03641113 -21.99121094 73.91821289 C-23.21847197 71.85416852 -24.4531464 69.79450845 -25.69628906 67.73999023 C-26.24768555 66.81001221 -26.79908203 65.88003418 -27.3671875 64.921875 C-27.85300293 64.11331055 -28.33881836 63.30474609 -28.83935547 62.47167969 C-30.21673687 59.53844256 -30.8160576 57.24182175 -31 54 C-29.98706055 51.29370117 -29.98706055 51.29370117 -28.38671875 48.54296875 C-27.802854 47.52098389 -27.21898926 46.49899902 -26.61743164 45.44604492 C-25.9805542 44.3707251 -25.34367676 43.29540527 -24.6875 42.1875 C-24.04611084 41.07544189 -23.40472168 39.96338379 -22.74389648 38.81762695 C-20.84558461 35.53523305 -18.92559976 32.26644094 -17 29 C-16.02784439 27.33380068 -15.0563995 25.66718631 -14.0859375 24 C-12.46712477 21.22663551 -10.83561197 18.46150324 -9.19140625 15.703125 C-7.73129287 13.25059581 -6.30306304 10.78379868 -4.90234375 8.296875 C-4.27457031 7.18828125 -3.64679688 6.0796875 -3 4.9375 C-2.46375 3.97714844 -1.9275 3.01679688 -1.375 2.02734375 C-0.92125 1.35832031 -0.4675 0.68929688 0 0 Z " fill="#3B97D2" transform="translate(286,264)"/>
<path d="M0 0 C10.13905673 6.28878202 15.87581612 17.94830728 21.94042969 27.82910156 C23.65566423 30.61225605 25.39091803 33.38189922 27.1328125 36.1484375 C42.07400562 59.88835551 56.51422703 83.90939699 70.63330078 108.14501953 C72.51163592 111.36798291 74.3937274 114.58871478 76.27734375 117.80859375 C82.22207999 127.97623983 88.12743777 138.16550582 94 148.375 C98.86989178 156.84001591 103.80047123 165.26643274 108.79309082 173.65945435 C110.46141029 176.46703964 112.12258784 179.27885024 113.78515625 182.08984375 C116.29103924 186.3253617 118.82247398 190.54399394 121.37109375 194.75390625 C122.49815574 196.64798553 123.62449958 198.54249239 124.75 200.4375 C125.27746826 201.2931958 125.80493652 202.1488916 126.34838867 203.03051758 C126.81349854 203.82224365 127.2786084 204.61396973 127.7578125 205.4296875 C128.16918457 206.11144043 128.58055664 206.79319336 129.00439453 207.49560547 C129.89314119 210.45553041 128.9971414 211.84967029 127.625 214.5625 C126.79626989 216.10097505 125.93377472 217.62161588 125.04296875 219.125 C124.52919678 219.99447266 124.0154248 220.86394531 123.48608398 221.75976562 C122.65765991 223.14711914 122.65765991 223.14711914 121.8125 224.5625 C121.24152588 225.52349609 120.67055176 226.48449219 120.08227539 227.47460938 C114.05602456 237.58071359 107.90587769 247.61259474 101.625 257.5625 C101.23328613 258.19671875 100.84157227 258.8309375 100.43798828 259.484375 C99.55426921 260.87942068 98.59772135 262.22798697 97.625 263.5625 C96.965 263.5625 96.305 263.5625 95.625 263.5625 C31.87499999 153.06249999 31.87499999 153.06249999 29.99902344 149.81079102 C28.75229744 147.64981012 27.50555273 145.48884002 26.25878906 143.32788086 C23.08354117 137.82431149 19.90864505 132.32053968 16.734375 126.81640625 C11.20434227 117.22804306 5.67372391 107.64006194 0.125 98.0625 C-4.76809369 89.61661071 -9.65291152 81.16593689 -14.52050781 72.70532227 C-17.49837851 67.53197354 -20.48464162 62.36436897 -23.51324463 57.2205658 C-24.55279681 55.45398924 -25.58890738 53.68543868 -26.62402344 51.91625977 C-27.92258825 49.69922494 -29.22756024 47.48592584 -30.54003906 45.27709961 C-35.15121058 37.38005915 -39.92401933 29.0326409 -38.375 19.5625 C-36.21573645 11.41385064 -32.3936508 5.93159426 -25.4140625 1.24609375 C-17.97102895 -2.72444645 -7.80986935 -3.3426857 0 0 Z " fill="#3A97D2" transform="translate(126.375,1.4375)"/>
<path d="M0 0 C0.88568665 -0.00012085 1.77137329 -0.0002417 2.68389893 -0.00036621 C15.64508115 0.02485523 27.96050111 0.54713091 40.4375 4.375 C41.98050781 4.82552734 41.98050781 4.82552734 43.5546875 5.28515625 C49.70719612 7.39380535 56.43679405 11.37358811 59.4375 17.375 C59.56061126 19.94261586 59.62586415 22.48206019 59.640625 25.05078125 C59.64632507 25.81295456 59.65202515 26.57512787 59.65789795 27.36039734 C59.66735081 28.97519542 59.67388307 30.59001282 59.67773438 32.20483398 C59.68742133 34.66750092 59.71843303 37.12932656 59.75 39.59179688 C59.7565321 41.16145338 59.76178176 42.73111586 59.765625 44.30078125 C59.7779718 45.03428299 59.7903186 45.76778473 59.80303955 46.52351379 C59.78367051 51.00189053 59.16520434 53.79987776 56.4375 57.375 C37.62390387 73.36655671 3.34124895 70.76045406 -19.76123047 69.15234375 C-33.5885138 67.81140181 -47.88332133 65.16891554 -57.5625 54.375 C-59.06038551 51.37922898 -58.88468058 48.24625673 -59.01953125 44.953125 C-59.06493294 43.84671661 -59.06493294 43.84671661 -59.11125183 42.71795654 C-59.17206551 41.15453005 -59.22987017 39.59098408 -59.28491211 38.02734375 C-59.34471609 36.43257085 -59.41365043 34.83811281 -59.49194336 33.24414062 C-59.60504207 30.93912666 -59.69025689 28.63452184 -59.76953125 26.328125 C-59.80891312 25.62165833 -59.84829498 24.91519165 -59.88887024 24.18731689 C-60.01875692 19.0679072 -58.75970802 16.31608734 -55.5625 12.375 C-40.48934872 -0.11656183 -18.53947247 -0.03877739 0 0 Z " fill="#7BA1B0" transform="translate(255.5625,442.625)"/>
<path d="M0 0 C0.91201172 -0.03673828 1.82402344 -0.07347656 2.76367188 -0.11132812 C9.78336475 -0.15661647 13.63634033 1.76113117 18.6875 6.5625 C24.06862524 11.94362524 26.16268914 17.51395906 27.125 24.9375 C25.80677794 35.85991136 19.84520076 44.70750882 14.27099609 53.91455078 C11.17542565 59.09101656 8.19125178 64.33242034 5.1875 69.5625 C0.75232905 77.26360509 -3.69009559 84.9600329 -8.1875 92.625 C-8.59806641 93.32689453 -9.00863281 94.02878906 -9.43164062 94.75195312 C-12.19176578 99.44176578 -12.19176578 99.44176578 -13.3125 100.5625 C-15.1843094 100.65636381 -17.0596806 100.67993804 -18.93383789 100.67602539 C-20.13500748 100.67594986 -21.33617706 100.67587433 -22.57374573 100.67579651 C-23.8810112 100.67063522 -25.18827667 100.66547394 -26.53515625 100.66015625 C-27.87894132 100.65829198 -29.22272707 100.65686812 -30.56651306 100.65586853 C-34.10932277 100.65204402 -37.6520917 100.64221432 -41.19488525 100.63116455 C-44.80765227 100.62094899 -48.42042584 100.6163706 -52.03320312 100.61132812 C-59.1263188 100.60059198 -66.21940674 100.58351636 -73.3125 100.5625 C-72.59766077 96.59415681 -71.51256489 93.79042717 -69.4609375 90.30078125 C-68.86474609 89.27782959 -68.26855469 88.25487793 -67.65429688 87.20092773 C-67.00525391 86.10337158 -66.35621094 85.00581543 -65.6875 83.875 C-65.00773489 82.71404938 -64.32871113 81.5526644 -63.65039062 80.39086914 C-62.24067011 77.97740134 -60.82776986 75.56583471 -59.41308594 73.15527344 C-56.79755854 68.69094748 -54.22730834 64.20087541 -51.65478516 59.71166992 C-45.95724812 49.77910966 -40.18107362 39.89499904 -34.3125 30.0625 C-33.4143457 28.55030884 -33.4143457 28.55030884 -32.49804688 27.00756836 C-16.31626084 0.03415826 -16.31626084 0.03415826 0 0 Z " fill="#F93B47" transform="translate(395.3125,-0.5625)"/>
<path d="M0 0 C6.66107451 5.3855496 11.8226487 11.56930051 16.8125 18.5 C17.41892334 19.3353125 18.02534668 20.170625 18.65014648 21.03125 C19.86082744 22.70359453 21.06819196 24.37834577 22.27197266 26.05566406 C23.72796606 28.08321277 25.19614705 30.10113018 26.66796875 32.1171875 C33.47395395 41.55432413 40.48385011 52.22510626 38.9375 64.375 C36.76088834 71.37687125 32.07424466 75.9666508 25.82983398 79.60205078 C23.55588076 80.75375735 21.26168645 81.8284629 18.9375 82.875 C18.11241943 83.25446777 17.28733887 83.63393555 16.43725586 84.02490234 C13.94514993 85.16018704 11.44428821 86.2725539 8.9375 87.375 C8.1861377 87.70661133 7.43477539 88.03822266 6.66064453 88.37988281 C-4.71068356 93.33826586 -4.71068356 93.33826586 -8.21875 93.43359375 C-11.23248359 91.70325095 -12.50408657 88.77143334 -14.125 85.8125 C-24.9149525 67.03523848 -38.1402148 49.44665137 -51.77539062 32.64990234 C-53.73278436 30.21365157 -55.06373595 28.37129214 -56.0625 25.375 C-55.48886719 25.03210938 -54.91523438 24.68921875 -54.32421875 24.3359375 C-46.90041451 19.76224323 -39.93274106 14.67581044 -32.96557617 9.43896484 C-11.90129665 -6.31497373 -11.90129665 -6.31497373 0 0 Z " fill="#ECE0DB" transform="translate(472.0625,315.625)"/>
<path d="M0 0 C4.09834887 2.17909327 7.6334372 4.94021121 11.28125 7.796875 C15.9939825 11.48319752 20.92968187 14.85827126 25.83618164 18.27929688 C29.56323871 20.88854164 33.19655561 23.54599573 36.7109375 26.44140625 C35.76347656 27.62669922 35.76347656 27.62669922 34.796875 28.8359375 C18.44078615 49.40623065 3.03226005 70.76476943 -10.2890625 93.44140625 C-16.25518774 92.46466652 -21.54992482 89.98664633 -27.07983398 87.62353516 C-28.94883515 86.82820528 -30.82454527 86.05056891 -32.70117188 85.2734375 C-53.01455113 76.62806329 -53.01455113 76.62806329 -57.2890625 67.44140625 C-59.57495703 53.51823045 -54.81283255 44.20951552 -46.9140625 33.00390625 C-45.58821154 31.18906313 -44.2458278 29.38777831 -42.89648438 27.59033203 C-41.03646911 25.10371988 -39.20337551 22.59800353 -37.3671875 20.09375 C-35.96747611 18.20864694 -34.56643441 16.32453092 -33.1640625 14.44140625 C-32.50744629 13.54494385 -31.85083008 12.64848145 -31.17431641 11.72485352 C-22.70556141 0.48287201 -14.11291692 -6.08169243 0 0 Z " fill="#EEE0DB" transform="translate(57.2890625,314.55859375)"/>
<path d="M0 0 C0.33 0 0.66 0 1 0 C1.0744389 4.0384057 1.12873729 8.07654293 1.16479492 12.11547852 C1.17983432 13.48794517 1.20027133 14.86036414 1.22631836 16.23266602 C1.26291221 18.21088656 1.27816698 20.18946514 1.29296875 22.16796875 C1.3086792 23.35672607 1.32438965 24.5454834 1.34057617 25.77026367 C0.87742099 30.16243565 -0.60381411 32.81324199 -3.953125 35.66015625 C-27.78386336 50.20987576 -66.39611616 49.38531587 -92.97216797 43.50048828 C-102.06596337 41.25605287 -109.65974428 38.07045371 -116 31 C-117.38308781 28.23382437 -117.11210196 25.98982 -117.09765625 22.8984375 C-117.09443359 21.68671875 -117.09121094 20.475 -117.08789062 19.2265625 C-117.07951172 17.95554687 -117.07113281 16.68453125 -117.0625 15.375 C-117.05798828 14.09625 -117.05347656 12.8175 -117.04882812 11.5 C-117.03701203 8.33328708 -117.02053815 5.16666644 -117 2 C-116.54906982 2.4019458 -116.09813965 2.8038916 -115.63354492 3.21801758 C-96.74673148 19.7799918 -67.82611714 19.22185216 -44 18 C-29.6882643 16.9013213 -15.84423763 14.64309232 -4 6 C-3.34 6 -2.68 6 -2 6 C-1.34 4.02 -0.68 2.04 0 0 Z " fill="#547884" transform="translate(314,466)"/>
<path d="M0 0 C20.79 0 41.58 0 63 0 C67.5 7.875 67.5 7.875 68 12 C60.13308783 12.1159815 52.26637686 12.20475893 44.39882374 12.25906086 C40.74531107 12.28512695 37.0923844 12.32046776 33.43920898 12.37719727 C29.91191052 12.43162765 26.38517473 12.46144302 22.85748863 12.47438622 C20.86043598 12.48808639 18.86360894 12.52710294 16.86689758 12.56648254 C6.76788266 12.56960645 6.76788266 12.56960645 3.7175293 9.60229492 C0 3.96972281 0 3.96972281 0 0 Z " fill="#317BAC" transform="translate(122,89)"/>
<path d="M0 0 C20.46 0 40.92 0 62 0 C57 10 57 10 55 12 C52.48165894 12.24050903 52.48165894 12.24050903 49.26513672 12.22705078 C48.06404266 12.22689972 46.86294861 12.22674866 45.62545776 12.22659302 C44.32335358 12.21627045 43.02124939 12.20594788 41.6796875 12.1953125 C40.33733327 12.19158276 38.99497633 12.18873561 37.65261841 12.18673706 C34.117986 12.17909744 30.58351772 12.1594463 27.0489502 12.1373291 C23.4428123 12.11687765 19.83664791 12.10773685 16.23046875 12.09765625 C9.15357865 12.0762006 2.07680003 12.04206079 -5 12 C-4.38188124 6.9005202 -2.84410149 4.97717761 0 0 Z " fill="#CC313B" transform="translate(327,88)"/>
</svg>
